<svg width="16" height="16" viewBox="0 0 16 16" fill="none" xmlns="http://www.w3.org/2000/svg">
<path d="M2.20025 1.04028C1.87993 0.719971 1.3606 0.719971 1.04028 1.04028C0.71997 1.3606 0.71997 1.87993 1.04028 2.20025L6.84009 8.00005L1.04028 13.7999C0.71997 14.1202 0.71997 14.6395 1.04028 14.9598C1.3606 15.2801 1.87993 15.2801 2.20025 14.9598L8.00005 9.16001L13.7999 14.9598C14.1202 15.2801 14.6395 15.2801 14.9598 14.9598C15.2801 14.6395 15.2801 14.1202 14.9598 13.7999L9.16001 8.00005L14.9598 2.20025C15.2801 1.87993 15.2801 1.3606 14.9598 1.04028C14.6395 0.71997 14.1202 0.71997 13.7999 1.04028L8.00005 6.84009L2.20025 1.04028Z" fill="#16181D"/>
</svg>
