<svg width="24" height="24" viewBox="0 0 24 24" fill="none" xmlns="http://www.w3.org/2000/svg">
<path d="M3.20002 11.2C2.7582 11.2 2.40002 11.5582 2.40002 12C2.40002 12.4419 2.7582 12.8 3.20002 12.8H11.2L11.2 20.8C11.2 21.2419 11.5582 21.6 12 21.6C12.4419 21.6 12.8 21.2419 12.8 20.8L12.8 12.8H20.8C21.2418 12.8 21.6 12.4419 21.6 12C21.6 11.5582 21.2418 11.2 20.8 11.2H12.8V3.20002C12.8 2.7582 12.4419 2.40002 12 2.40002C11.5582 2.40002 11.2 2.7582 11.2 3.20002V11.2H3.20002Z" fill="#16181D"/>
</svg>
