<svg width="30" height="30" viewBox="0 0 30 30" fill="none" xmlns="http://www.w3.org/2000/svg">
<path d="M6 8.27771H25" stroke="#eb154c" stroke-width="1.68889" stroke-linecap="round" stroke-linejoin="round"/>
<path d="M11.2778 8.27776V6.16665C11.2778 5.60675 11.5002 5.06978 11.8961 4.67387C12.292 4.27796 12.829 4.05554 13.3889 4.05554H17.6111C18.171 4.05554 18.708 4.27796 19.1039 4.67387C19.4998 5.06978 19.7222 5.60675 19.7222 6.16665V8.27776M22.8889 8.27776V23.0555C22.8889 23.6154 22.6664 24.1524 22.2705 24.5483C21.8746 24.9442 21.3377 25.1667 20.7778 25.1667H10.2222C9.66229 25.1667 9.12532 24.9442 8.72941 24.5483C8.3335 24.1524 8.11108 23.6154 8.11108 23.0555V8.27776H22.8889Z" stroke="#eb154c" stroke-width="1.68889" stroke-linecap="round" stroke-linejoin="round"/>
<path d="M13.3889 13.5555V19.8889" stroke="#eb154c" stroke-width="1.68889" stroke-linecap="round" stroke-linejoin="round"/>
<path d="M17.6111 13.5555V19.8889" stroke="#eb154c" stroke-width="1.68889" stroke-linecap="round" stroke-linejoin="round"/>
</svg>
